<?xml version="1.0" encoding="UTF-8"?>
<svg version="1.1" xmlns="http://www.w3.org/2000/svg" width="484" height="364">
<path d="M0 0 C4.30107972 1.45999954 7.38090243 3.63438086 10.9375 6.4375 C11.49163574 6.86909424 12.04577148 7.30068848 12.61669922 7.74536133 C15.72651669 10.17400967 18.79858681 12.6457776 21.85546875 15.140625 C22.80015015 15.90354858 22.80015015 15.90354858 23.76391602 16.68188477 C24.98930872 17.67322634 26.20750428 18.67354164 27.41772461 19.68334961 C29.25611968 21.20730143 29.25611968 21.20730143 32 23 C35.43911385 21.85362872 35.56165963 21.49577138 37.12109375 18.4375 C37.49943359 17.72335938 37.87777344 17.00921875 38.26757812 16.2734375 C39.0467098 14.75939865 39.82276118 13.24377064 40.59570312 11.7265625 C40.97533203 11.01242188 41.35496094 10.29828125 41.74609375 9.5625 C42.25160767 8.57443359 42.25160767 8.57443359 42.76733398 7.56640625 C44 6 44 6 45.8984375 5.12280273 C48.71517381 4.95820952 49.65718445 5.7653866 51.87890625 7.47265625 C52.625354 8.0354126 53.37180176 8.59816895 54.14086914 9.17797852 C54.94000732 9.79987061 55.73914551 10.4217627 56.5625 11.0625 C58.28101875 12.36488853 59.99977535 13.66696326 61.71875 14.96875 C62.59660156 15.64035156 63.47445312 16.31195313 64.37890625 17.00390625 C68.40562298 20.07045208 72.48324162 23.06641779 76.5625 26.0625 C77.74017944 26.93080444 77.74017944 26.93080444 78.94165039 27.81665039 C85.00889079 32.28708443 91.11426056 36.70296506 97.23071289 41.10571289 C103.4862521 45.61431413 109.69318346 50.18680605 115.89453125 54.76953125 C121.23857676 58.71415404 126.60910781 62.61969056 132 66.5 C139.00215242 71.54007819 145.95613256 76.64213385 152.89453125 81.76953125 C158.23857676 85.71415404 163.60910781 89.61969056 169 93.5 C176.00000782 98.53853453 182.95232331 103.63841095 189.88793945 108.76513672 C194.54704921 112.20490181 199.22447908 115.61684888 203.92626953 118.99804688 C206.15361437 120.60061932 208.37604471 122.20980469 210.59765625 123.8203125 C213.61089047 126.00428418 216.64241756 128.15983797 219.68359375 130.3046875 C221.16455185 131.36911115 222.64503956 132.43418965 224.125 133.5 C224.81875732 133.98033691 225.51251465 134.46067383 226.22729492 134.95556641 C230.79861791 138.28580888 230.79861791 138.28580888 231.71484375 141.53515625 C230.72444605 144.95013411 229.01479481 146.50616227 226.4375 148.9375 C225.53128906 149.79988281 224.62507813 150.66226563 223.69140625 151.55078125 C220.51466874 154.44165849 217.31148179 157.26442809 214 160 C215.02738281 160.50789062 216.05476563 161.01578125 217.11328125 161.5390625 C220.72074255 163.32730955 224.31916252 165.13295227 227.91308594 166.94824219 C229.76416816 167.88114605 231.62002939 168.80455392 233.4765625 169.7265625 C234.45367187 170.22929687 235.43078125 170.73203125 236.4375 171.25 C237.30246094 171.68828125 238.16742188 172.1265625 239.05859375 172.578125 C241 174 241 174 241.78515625 176.171875 C241.85605469 176.77515625 241.92695313 177.3784375 242 178 C238.28907079 181.1588324 234.49789353 183.48595492 230.1875 185.75 C229.02605469 186.36359375 227.86460937 186.9771875 226.66796875 187.609375 C225.78753906 188.06828125 224.90710938 188.5271875 224 189 C226.02530905 191.19292083 227.73618785 192.86185367 230.39453125 194.25390625 C233.42851697 195.89588559 235.04405096 197.12335478 237 200 C237.87753849 205.50658683 237.07635077 211.20063033 236.29394531 216.68310547 C235.96114516 218.9869276 235.96114516 218.9869276 235.94824219 221.27392578 C235.8671875 223.41015625 235.8671875 223.41015625 235 227 C229.30176414 230.08856034 223.0659359 231.36320498 216.79394531 232.84057617 C215.1232868 233.24200506 215.1232868 233.24200506 213.4188776 233.65154362 C209.72334943 234.53794012 206.0257689 235.41544372 202.328125 236.29296875 C199.71497 236.91796939 197.10193987 237.54347127 194.48905945 238.1696167 C188.23236974 239.667766 181.97415111 241.15942333 175.71531206 242.64856493 C168.54723313 244.35420159 161.38046708 246.06532069 154.21381986 247.77696145 C150.64742056 248.62872987 147.08097633 249.48031002 143.51451111 250.33180237 C142.46093763 250.58334407 142.46093763 250.58334407 141.38607985 250.83996743 C136.44321529 252.01991657 131.50000293 253.19840155 126.55665588 254.37632751 C111.85853965 257.87916542 97.16472286 261.39872751 82.48151016 264.96362877 C77.7407132 266.11405002 72.99884552 267.26005145 68.25704384 268.40632343 C64.77109332 269.24955035 61.28599639 270.09602683 57.8026123 270.94979858 C54.08814278 271.86019864 50.37046215 272.75695498 46.65234375 273.65234375 C45.08029427 274.04217438 45.08029427 274.04217438 43.47648621 274.43988037 C42.53412613 274.66460022 41.59176605 274.88932007 40.62084961 275.12084961 C39.81650986 275.31682236 39.0121701 275.5127951 38.18345642 275.71470642 C34.27689759 276.22514306 31.73687232 275.056124 28.671875 272.734375 C28.04514893 272.26306152 27.41842285 271.79174805 26.77270508 271.30615234 C26.1052124 270.79262207 25.43771973 270.2790918 24.75 269.75 C24.04834717 269.21713379 23.34669434 268.68426758 22.6237793 268.13525391 C16.92251237 263.77684474 11.34571172 259.27156616 5.79638672 254.72216797 C0.67651519 250.52792293 -4.53216565 246.47236678 -9.79296875 242.45703125 C-14.98430911 238.4920672 -20.10329566 234.43412666 -25.23388672 230.39111328 C-28.15371048 228.09125763 -31.07701893 225.79584055 -34 223.5 C-35.16668361 222.5833549 -36.33335027 221.66668823 -37.5 220.75 C-38.0775 220.29625 -38.655 219.8425 -39.25 219.375 C-72.5 193.25 -72.5 193.25 -74.24902344 191.87573242 C-75.41890016 190.95656687 -76.58882223 190.03745905 -77.75878906 189.1184082 C-80.62671157 186.86543906 -83.4939099 184.61156277 -86.359375 182.35546875 C-93.6572815 176.61174604 -100.97877243 170.89915962 -108.31396484 165.203125 C-111.82910253 162.47204684 -115.34067096 159.73695056 -118.8359375 156.98046875 C-119.43664062 156.50673828 -120.03734375 156.03300781 -120.65625 155.54492188 C-125.26746824 151.90310747 -125.26746824 151.90310747 -126.99023438 150.4543457 C-129.086384 148.8483468 -129.086384 148.8483468 -132.05664062 147.52026367 C-135.73485988 145.47527142 -138.80796002 143.63151935 -141 140 C-143.02647088 132.23225746 -142.12293226 123.8705197 -141.75 115.9375 C-141.68975254 113.71433643 -141.63500919 111.49101645 -141.5859375 109.26757812 C-141.45423885 103.84161942 -141.25397489 98.42153837 -141 93 C-138.49242655 91.57405067 -135.98308109 90.1513828 -133.47265625 88.73046875 C-132.42301697 88.13292786 -132.42301697 88.13292786 -131.35217285 87.52331543 C-102.11341898 71 -102.11341898 71 -92 71 C-95.76189123 67.0884881 -99.74232308 63.67193982 -104 60.3125 C-104.98359497 59.53084473 -104.98359497 59.53084473 -105.98706055 58.73339844 C-111.27621161 54.54187537 -116.62240391 50.42700329 -121.98046875 46.32421875 C-126.36924236 42.94605537 -130.75029851 39.55235665 -135 36 C-135.59296875 35.50886719 -136.1859375 35.01773438 -136.796875 34.51171875 C-138 33 -138 33 -137.625 29.25 C-137.41294805 27.1077808 -137.41294805 27.1077808 -138 25 C-140.15464759 22.86685588 -142.3877988 21.28204522 -144.93359375 19.640625 C-147 18 -147 18 -147.859375 15.94921875 C-148.07708998 12.93144723 -146.71789005 11.4287411 -145 9 C-144.38125 8.0925 -143.7625 7.185 -143.125 6.25 C-140.6337548 3.61221097 -139.5794737 3.18587771 -136 3 C-133.859375 4.50390625 -133.859375 4.50390625 -131.75 6.5625 C-128.5594013 9.25393442 -128.5594013 9.25393442 -124.62890625 10.26953125 C-119.15337793 9.33693705 -116.28110433 6.82314668 -112.99609375 2.4609375 C-112.66738281 1.97882812 -112.33867188 1.49671875 -112 1 C-106.93712801 2.55780677 -103.47917251 5.65185833 -99.5 9 C-98.06098715 10.19012286 -96.62087018 11.37891187 -95.1796875 12.56640625 C-94.4690918 13.15309082 -93.75849609 13.73977539 -93.02636719 14.34423828 C-88.70865436 17.87227785 -84.25423559 21.22192522 -79.82226562 24.60449219 C-73.87825774 29.15646822 -67.97213469 33.7575717 -62.078125 38.37402344 C-60.76250809 39.40339475 -59.44502769 40.43039259 -58.125 41.45410156 C-56.53452665 42.68942944 -54.95429024 43.93790695 -53.375 45.1875 C-52.51648438 45.86167969 -51.65796875 46.53585938 -50.7734375 47.23046875 C-50.18820313 47.81441406 -49.60296875 48.39835937 -49 49 C-49 49.99 -49 50.98 -49 52 C-28.3187405 39.55352772 -14.8426008 25.3212623 -2.93359375 4.359375 C-1 1 -1 1 0 0 Z M-111 9 C-111.66 10.32 -112.32 11.64 -113 13 C-112.54898926 13.35078613 -112.09797852 13.70157227 -111.63330078 14.06298828 C-110.99376465 14.56040527 -110.35422852 15.05782227 -109.6953125 15.5703125 C-108.97569336 16.13000732 -108.25607422 16.68970215 -107.51464844 17.26635742 C-105.9006812 18.52168359 -104.2867498 19.77705583 -102.67285156 21.0324707 C-98.54574158 24.24275557 -94.41814935 27.45241432 -90.2890625 30.66015625 C-83.24400763 36.13420679 -76.20319298 41.61334083 -69.1875 47.125 C-68.63094727 47.56223389 -68.07439453 47.99946777 -67.50097656 48.44995117 C-65.06006521 50.37023014 -62.64906085 52.30037155 -60.2890625 54.3203125 C-58.09193412 56.32030423 -58.09193412 56.32030423 -55.1875 55.75 C-54.465625 55.5025 -53.74375 55.255 -53 55 C-56.91644741 50.92538836 -61.09794988 47.35169331 -65.5 43.8125 C-66.20560059 43.24225098 -66.91120117 42.67200195 -67.63818359 42.08447266 C-72.95732342 37.80110853 -78.34431463 33.61522519 -83.7734375 29.47265625 C-87.29173864 26.78569737 -90.77206721 24.05140127 -94.25 21.3125 C-94.83499268 20.85238525 -95.41998535 20.39227051 -96.02270508 19.91821289 C-98.63309029 17.86473944 -101.24166708 15.80905317 -103.84765625 13.75 C-104.66105469 13.110625 -105.47445312 12.47125 -106.3125 11.8125 C-107.00988281 11.26207031 -107.70726562 10.71164063 -108.42578125 10.14453125 C-109.81041907 8.90199127 -109.81041907 8.90199127 -111 9 Z M2 9 C0.46860219 11.34895679 -0.96178488 13.70619624 -2.375 16.125 C-12.90295294 33.47813081 -26.24547998 46.08059506 -43.84765625 56.1875 C-45.93919719 57.39007125 -47.99258126 58.66172084 -50 60 C-48.91191944 63.26424169 -48.39600227 63.72586066 -45.74609375 65.6796875 C-45.06450195 66.18975342 -44.38291016 66.69981934 -43.68066406 67.2253418 C-42.94041992 67.769729 -42.20017578 68.31411621 -41.4375 68.875 C-39.87733338 70.04347574 -38.31877763 71.21410497 -36.76171875 72.38671875 C-35.96685059 72.98532715 -35.17198242 73.58393555 -34.35302734 74.20068359 C-30.75478325 76.95219417 -27.25002705 79.81273798 -23.75 82.6875 C-17.98008743 87.41479282 -12.13618229 92.01751315 -6.20703125 96.54296875 C-1.61673679 100.04887498 2.91406863 103.63029525 7.44921875 107.20703125 C9.8389179 109.09092505 12.23784584 110.96207891 14.64453125 112.82421875 C29.47252635 124.31581506 40.85496524 135.78963978 49.81420898 152.40161133 C51.79893859 156.03902956 53.78128361 159.19612444 56.625 162.25 C57.800625 163.61125 57.800625 163.61125 59 165 C58.6484375 167.171875 58.6484375 167.171875 58 169 C55.08328389 168.35670297 52.55894213 167.41456898 49.859375 166.14453125 C45.89066571 164.3443338 41.89339485 162.88269133 37.75805664 161.51635742 C23.76205428 156.89098723 12.39431679 150.76136671 0.85742188 141.48339844 C-1.94285547 139.24700449 -4.77928945 137.05788584 -7.61254883 134.86352539 C-14.32184474 129.66616364 -21.00357462 124.43394614 -27.67163086 119.18383789 C-32.43352152 115.43752604 -37.21525578 111.71706158 -42 108 C-49.11014505 102.47579152 -56.20062398 96.92745913 -63.27490234 91.35742188 C-65.11583906 89.9088501 -66.95814813 88.4620382 -68.80078125 87.015625 C-69.43016602 86.52151123 -70.05955078 86.02739746 -70.70800781 85.51831055 C-71.90386737 84.57953875 -73.09982365 83.64089014 -74.29589844 82.70239258 C-76.81243673 80.72612594 -79.11783214 78.87044528 -81.27734375 76.49609375 C-84.52568641 74.71113645 -85.12519567 74.97293047 -88.57421875 75.953125 C-90.394365 76.6039713 -92.20269337 77.2885071 -94 78 C-94.93924316 78.35900391 -95.87848633 78.71800781 -96.84619141 79.08789062 C-99.85365624 80.2673674 -102.83452232 81.49801737 -105.8125 82.75 C-106.86187744 83.18957031 -107.91125488 83.62914062 -108.99243164 84.08203125 C-122.11293008 88.64960691 -122.11293008 88.64960691 -132 97 C-131.27804443 97.5261792 -131.27804443 97.5261792 -130.54150391 98.06298828 C-120.76625145 105.19852962 -111.08539174 112.43009202 -101.55639648 119.89160156 C-96.17084004 124.10408397 -90.72966058 128.23276862 -85.24926758 132.32080078 C-79.63780327 136.51027137 -74.0659838 140.7503401 -68.5 145 C-61.7258269 150.17070707 -54.93251136 155.31333569 -48.10644531 160.4152832 C-41.5379982 165.33167137 -35.0184171 170.3117434 -28.49609375 175.2890625 C-23.11083792 179.39699557 -17.70725802 183.47733596 -12.28125 187.53125 C-6.73556521 191.69051359 -1.23658257 195.91192296 4.27441406 200.11694336 C9.98901185 204.4749677 15.71320727 208.81734982 21.4921875 213.08984375 C23.19983401 214.39052778 24.87136334 215.73970875 26.5078125 217.12890625 C27.28898438 217.78761719 28.07015625 218.44632813 28.875 219.125 C29.53242188 219.70507812 30.18984375 220.28515625 30.8671875 220.8828125 C33.88927302 222.46580968 35.70614611 221.71172646 39 221 C40.79091481 220.40539678 42.56413788 219.75527063 44.31738281 219.05737305 C45.334151 218.65572433 46.35091919 218.25407562 47.39849854 217.84025574 C48.48902527 217.40183853 49.579552 216.96342133 50.703125 216.51171875 C51.85375427 216.05328079 53.00438354 215.59484283 54.18988037 215.12251282 C56.63549309 214.14609712 59.07996495 213.16725732 61.52294922 212.18432617 C65.16314684 210.72023677 68.81008949 209.2733828 72.45703125 207.82617188 C102.27416593 195.92500343 133.0086645 183.59191877 158 163 C158.97582031 162.20722656 159.95164062 161.41445312 160.95703125 160.59765625 C166.61968628 155.76699551 171.29477243 150.49028273 175 144 C175 143.34 175 142.68 175 142 C172.68164306 140.12947285 170.34995527 138.36716037 167.9375 136.625 C162.3865143 132.54424537 156.91686625 128.39825889 151.5625 124.0625 C146.27184929 119.78823141 140.91590097 115.6143959 135.5 111.5 C129.38661062 106.85418421 123.35737422 102.11873556 117.3762207 97.30419922 C112.99788642 93.78457816 108.57442919 90.33417903 104.11303711 86.92016602 C99.49519151 83.38600824 94.90105506 79.82209367 90.3125 76.25 C89.17010864 75.36078857 89.17010864 75.36078857 88.00463867 74.45361328 C86.44654195 73.24065319 84.88851837 72.02759914 83.33056641 70.81445312 C79.55482734 67.87486662 75.77734465 64.93752285 72 62 C70.49999123 60.83334461 68.99999124 59.66667793 67.5 58.5 C66.7575 57.9225 66.015 57.345 65.25 56.75 C52.875 47.125 52.875 47.125 40.5 37.5 C39.75645264 36.92169434 39.01290527 36.34338867 38.24682617 35.74755859 C36.75737049 34.58907508 35.26794952 33.43054695 33.77856445 32.27197266 C29.86753006 29.22972365 25.95577063 26.188413 22.04296875 23.1484375 C21.23021484 22.51679687 20.41746094 21.88515625 19.58007812 21.234375 C18.02821828 20.0283582 16.47614768 18.82261252 14.92382812 17.6171875 C13.86905273 16.79734375 13.86905273 16.79734375 12.79296875 15.9609375 C12.13603027 15.45143555 11.4790918 14.94193359 10.80224609 14.41699219 C9.21817628 13.17153822 7.66317607 11.88929649 6.11328125 10.6015625 C4.17627106 8.79866684 4.17627106 8.79866684 2 9 Z M-138 11 C-138.66 12.32 -139.32 13.64 -140 15 C-139.071875 15.845625 -138.14375 16.69125 -137.1875 17.5625 C-136.66542969 18.03816406 -136.14335937 18.51382813 -135.60546875 19.00390625 C-134.81076172 19.49697266 -134.81076172 19.49697266 -134 20 C-133.01 19.67 -132.02 19.34 -131 19 C-130.67 18.01 -130.34 17.02 -130 16 C-130.94875 15.175 -131.8975 14.35 -132.875 13.5 C-133.40867187 13.0359375 -133.94234375 12.571875 -134.4921875 12.09375 C-135.95936421 10.80427542 -135.95936421 10.80427542 -138 11 Z M47 14 C45.46657443 16.05645445 44.09891553 18.07778086 42.75 20.25 C42.16605469 21.12978516 42.16605469 21.12978516 41.5703125 22.02734375 C39.42674321 25.34699272 39.42674321 25.34699272 39.421875 29.1484375 C41.54332551 31.63746607 43.86785415 33.42747794 46.5 35.375 C47.68421327 36.26219451 48.86777073 37.15026485 50.05078125 38.0390625 C50.68838379 38.51504883 51.32598633 38.99103516 51.98291016 39.48144531 C55.58528923 42.19347604 59.13307671 44.97560937 62.6875 47.75 C64.23294656 48.95328731 65.77852095 50.15641044 67.32421875 51.359375 C68.4851001 52.26333008 68.4851001 52.26333008 69.66943359 53.18554688 C73.44517266 56.12513338 77.22265535 59.06247715 81 62 C82.50000877 63.16665539 84.00000876 64.33332207 85.5 65.5 C86.61375 66.36625 86.61375 66.36625 87.75 67.25 C118.125 90.875 118.125 90.875 148.5 114.5 C149.24378906 115.0784668 149.98757813 115.65693359 150.75390625 116.25292969 C152.2410259 117.40965014 153.72800704 118.56654869 155.21484375 119.72363281 C159.16074539 122.79401585 163.10960609 125.86049768 167.0625 128.921875 C167.88878906 129.56253906 168.71507812 130.20320313 169.56640625 130.86328125 C171.15667403 132.09618548 172.74778451 133.32800372 174.33984375 134.55859375 C175.05269531 135.11160156 175.76554688 135.66460937 176.5 136.234375 C177.1290625 136.72131836 177.758125 137.20826172 178.40625 137.70996094 C180 139 180 139 182 141 C180.80675836 152.25056404 168.66513468 162.22228729 160.5390625 168.87109375 C150.08926001 177.15199253 138.76927383 183.78265913 127 190 C126.12456543 190.4630957 125.24913086 190.92619141 124.34716797 191.40332031 C105.2483643 201.33959984 85.09741783 208.90817413 65.08966064 216.77706909 C55.9962894 220.36832821 46.99121093 224.16128962 38 228 C38 228.66 38 229.32 38 230 C51.23362437 226.91343688 64.16524112 223.0080796 77.125 218.9375 C78.70722351 218.44186554 78.70722351 218.44186554 80.32141113 217.93621826 C104.75161549 210.26682926 128.89412472 202.13484048 152 191 C153.23169922 190.41484619 153.23169922 190.41484619 154.48828125 189.81787109 C179.13318348 178.06800699 206.08460218 163.08070577 223 141 C222.55422607 140.67950684 222.10845215 140.35901367 221.64916992 140.02880859 C212.8978131 133.73282036 204.17014828 127.40747079 195.5 121 C189.35984941 116.46247325 183.19645329 111.96033417 177 107.5 C166.80643537 100.15996467 156.70598373 92.69545394 146.60449219 85.22949219 C137.36195339 78.40034581 128.0961172 71.6079307 118.76928711 64.89428711 C112.5137479 60.38568587 106.30681654 55.81319395 100.10546875 51.23046875 C94.03233794 46.74768316 87.92027513 42.32145285 81.79370117 37.91210938 C75.31228931 33.24087293 68.87764562 28.50760152 62.45507812 23.75585938 C60.30603132 22.1669464 58.15314131 20.58335717 56 19 C55.32888184 18.49984375 54.65776367 17.9996875 53.96630859 17.484375 C50.81468292 14.88678185 50.81468292 14.88678185 47 14 Z M-123.515625 18.484375 C-124.43651125 19.56495251 -125.34763576 20.65390784 -126.25 21.75 C-126.72179687 22.28882813 -127.19359375 22.82765625 -127.6796875 23.3828125 C-130.22020053 26.38628284 -130.22020053 26.38628284 -131.15234375 30.10546875 C-129.42475488 32.94574198 -126.96666444 34.65384859 -124.3125 36.5625 C-123.11912176 37.44962036 -121.92643632 38.33767332 -120.734375 39.2265625 C-119.8072168 39.91153809 -119.8072168 39.91153809 -118.86132812 40.61035156 C-115.88565422 42.8319591 -112.97518863 45.13431006 -110.0625 47.4375 C-108.88162004 48.36732674 -107.70062995 49.29701363 -106.51953125 50.2265625 C-105.34633462 51.15101686 -104.17315729 52.07549571 -103 53 C-95.22415936 59.12451361 -87.43428666 65.23066866 -79.625 71.3125 C-78.88797852 71.88718018 -78.15095703 72.46186035 -77.39160156 73.05395508 C-72.63336196 76.75570238 -67.83516508 80.3993278 -63 84 C-58.97499925 82.18058084 -56.99897208 79.85164116 -54.25 76.375 C-53.45078125 75.37210938 -52.6515625 74.36921875 -51.828125 73.3359375 C-51.22484375 72.56507813 -50.6215625 71.79421875 -50 71 C-58.14458531 62.6636038 -67.41757914 55.60422038 -76.66796875 48.55078125 C-80.03333047 45.9826087 -83.36323056 43.37104028 -86.6875 40.75 C-90.67285989 37.60841819 -94.66656916 34.47830346 -98.67578125 31.3671875 C-99.47604736 30.74618164 -100.27631348 30.12517578 -101.10083008 29.48535156 C-102.66115598 28.27545196 -104.22215524 27.06642006 -105.78393555 25.85839844 C-106.50492432 25.29926758 -107.22591309 24.74013672 -107.96875 24.1640625 C-108.65710938 23.63071289 -109.34546875 23.09736328 -110.0546875 22.54785156 C-111.8649746 21.10743738 -113.60416907 19.61021316 -115.34375 18.0859375 C-119.0672962 15.16185857 -120.12666355 15.13751245 -123.515625 18.484375 Z M-45 74 C-46.65450699 75.90973946 -48.29850015 77.8270261 -49.9375 79.75 C-50.40607422 80.28882813 -50.87464844 80.82765625 -51.35742188 81.3828125 C-53.76816329 84.2271405 -55.28066138 86.35167974 -56 90 C-54.43765625 91.18142578 -54.43765625 91.18142578 -52.84375 92.38671875 C-45.44688234 98.00074718 -38.11243881 103.6666265 -30.9375 109.5625 C-25.08116283 114.37193044 -19.1021574 118.96801435 -13.00854492 123.47192383 C-8.13586943 127.0934505 -3.43129407 130.88548986 1.25 134.75 C14.03630351 145.20440352 28.10503078 155.25529076 45 157 C39.86212772 139.54672533 24.87776296 127.60138842 11 117 C10.31309082 116.4750293 9.62618164 115.95005859 8.91845703 115.40917969 C6.08463256 113.24612575 3.24988291 111.08433397 0.41040039 108.92871094 C-4.49448268 105.19261082 -9.29800666 101.35056398 -14.0625 97.4375 C-24.07509567 89.22200504 -34.44315149 81.49984605 -45 74 Z M-135 103 C-137.66881369 122.68442924 -137.66881369 122.68442924 -132.1171875 140.51171875 C-129.06099585 143.1834297 -125.64667535 145.11772384 -122.02636719 146.92871094 C-118.8630843 148.60105857 -116.20637579 150.815696 -113.4375 153.0625 C-112.37486166 153.88081622 -111.30974412 154.695923 -110.2421875 155.5078125 C-105.0448303 159.49192644 -99.90962578 163.55569097 -94.76611328 167.60888672 C-91.84628952 169.90874237 -88.92298107 172.20415945 -86 174.5 C-84.83331639 175.4166451 -83.66664973 176.33331177 -82.5 177.25 C-81.9225 177.70375 -81.345 178.1575 -80.75 178.625 C-61.5 193.75 -61.5 193.75 -59.75097656 195.12426758 C-58.58109984 196.04343313 -57.41117777 196.96254095 -56.24121094 197.8815918 C-53.37328843 200.13456094 -50.5060901 202.38843723 -47.640625 204.64453125 C-41.11014114 209.78426392 -34.56250641 214.90120342 -28 220 C-20.87670722 225.53450443 -13.77303308 231.0930816 -6.68554688 236.67333984 C-3.21394798 239.40576574 0.26059031 242.13445696 3.7355957 244.86254883 C6.74284502 247.22396864 9.74691327 249.58927547 12.74609375 251.9609375 C13.36419922 252.44884766 13.98230469 252.93675781 14.61914062 253.43945312 C15.78684125 254.36132204 16.95359156 255.28439667 18.11914062 256.20898438 C24.20302002 261.80414483 24.20302002 261.80414483 31 265 C33.80745045 244.00745205 33.80745045 244.00745205 29.40917969 224.03564453 C25.25276504 219.51845071 20.0740996 216.90276367 14.57763672 214.30712891 C10.52243123 212.25071953 7.14771606 209.47221392 3.625 206.625 C2.23194299 205.54977878 0.83605044 204.47822234 -0.5625 203.41015625 C-1.27664062 202.86117676 -1.99078125 202.31219727 -2.7265625 201.74658203 C-14.41688307 192.76542295 -26.14977294 183.85505258 -38.04638672 175.14868164 C-44.19942428 170.62922227 -50.22506791 165.96162196 -56.23120117 161.24951172 C-61.58264317 157.06528549 -67.01574103 153.00817948 -72.5 149 C-79.57884934 143.82529672 -86.53596899 138.51785031 -93.43920898 133.11157227 C-98.90750655 128.83378302 -104.43174735 124.63964686 -110.0012207 120.49462891 C-113.59545529 117.81618313 -117.16404883 115.10929151 -120.70703125 112.36328125 C-121.48618896 111.7607251 -122.26534668 111.15816895 -123.06811523 110.53735352 C-124.57985654 109.36606998 -126.08860382 108.19090958 -127.59399414 107.01147461 C-128.27196045 106.48690674 -128.94992676 105.96233887 -129.6484375 105.421875 C-130.24833496 104.95362305 -130.84823242 104.48537109 -131.46630859 104.00292969 C-132.97356129 102.81756679 -132.97356129 102.81756679 -135 103 Z M201.72265625 168.515625 C195.94367457 173.17652386 189.83483072 176.99980853 183.4375 180.75 C182.85219513 181.09382721 182.26689026 181.43765442 181.66384888 181.79190063 C141.02550851 205.58412029 95.49425325 220.00655343 50.43359375 232.9675293 C49.74508331 233.16576294 49.05657288 233.36399658 48.34719849 233.5682373 C46.49117634 234.10112028 44.63405362 234.63016575 42.77685547 235.15893555 C40.07584371 235.89177143 40.07584371 235.89177143 38 237 C38 238.65 38 240.3 38 242 C103.5474074 227.57599531 171.2628531 209.25780943 231 178 C231 177.34 231 176.68 231 176 C227.0222289 174.1636275 223.0425574 172.33141138 219.0625 170.5 C217.92619141 169.97535156 216.78988281 169.45070312 215.61914062 168.91015625 C214.53955078 168.41386719 213.45996094 167.91757813 212.34765625 167.40625 C211.34742432 166.94541016 210.34719238 166.48457031 209.31665039 166.00976562 C205.4124212 164.30801708 204.93199766 165.82813558 201.72265625 168.515625 Z M205.1875 196.625 C152.86260702 220.93174381 94.75446443 234.18146222 39 248 C38.67 249.65 38.34 251.3 38 253 C48.44980965 251.44999705 58.7058442 249.15179576 69 246.8125 C69.88526367 246.61203064 70.77052734 246.41156128 71.68261719 246.20501709 C87.18019934 242.69179992 102.63213503 239.04883001 118 235 C118.7092865 234.81348877 119.418573 234.62697754 120.14935303 234.43481445 C155.56576425 225.10592055 190.50601105 214.3161634 225 202 C225 201.01 225 200.02 225 199 C223.38124211 197.30640153 223.38124211 197.30640153 221.25 195.8125 C220.55390625 195.28269531 219.8578125 194.75289062 219.140625 194.20703125 C214.04832888 191.3356453 209.86510557 194.34870854 205.1875 196.625 Z M223.20117188 208.3137207 C222.44920532 208.59765182 221.69723877 208.88158295 220.92248535 209.17411804 C220.11275269 209.4840419 219.30302002 209.79396576 218.46875 210.11328125 C208.88555402 213.70960109 199.2353365 217.02839062 189.5 220.1875 C188.65107178 220.46312775 187.80214355 220.73875549 186.92749023 221.0227356 C139.62100332 236.32145808 90.89800649 249.50396973 42.00048828 258.55786133 C39.94151573 258.92772069 39.94151573 258.92772069 38 260 C38 262.64 38 265.28 38 268 C45.71453899 266.68255764 53.3096 265.05395418 60.9140625 263.20947266 C62.05294418 262.935849 63.19182587 262.66222534 64.36521912 262.38031006 C68.1191611 261.47770067 71.87206397 260.57084453 75.625 259.6640625 C78.28947099 259.02239058 80.95418291 258.38172202 83.61889648 257.74105835 C89.94029367 256.220699 96.2609939 254.69746437 102.58139896 253.17298639 C113.69395258 250.49268841 124.8074534 247.81632351 135.92145634 245.14204192 C139.32908103 244.32206794 142.73661756 243.50173138 146.14395142 242.68054962 C160.51840859 239.21648927 174.89747223 235.77614446 189.296875 232.41699219 C190.49747055 232.13654493 191.6980661 231.85609768 192.93504333 231.56715202 C198.56257381 230.25340409 204.1913388 228.94542412 209.82250977 227.64736938 C211.79446894 227.18873024 213.76639486 226.72994807 215.73828125 226.27099609 C216.62662659 226.06849117 217.51497192 225.86598625 218.43023682 225.65734482 C219.65066681 225.37188482 219.65066681 225.37188482 220.89575195 225.08065796 C221.59682571 224.91904867 222.29789948 224.75743938 223.0202179 224.59093285 C225.23058761 223.93117334 227.05659373 223.25418548 229 222 C229.46709352 219.33517159 229.69572473 217.04929034 229.75 214.375 C229.77964844 213.66859375 229.80929687 212.9621875 229.83984375 212.234375 C229.91055357 210.49019953 229.95754035 208.74509173 230 207 C227.15211258 207 225.79029888 207.3215854 223.20117188 208.3137207 Z " fill="#98C767" transform="translate(204,57)"/>
</svg>
